<svg height="512pt" viewBox="0 0 512 512" width="512pt" xmlns="http://www.w3.org/2000/svg" xmlns:xlink="http://www.w3.org/1999/xlink"><linearGradient id="a" gradientUnits="userSpaceOnUse" x1="74.9807" x2="437.0193" y1="74.9807" y2="437.0193"><stop offset="0" stop-color="#18e0ff"/><stop offset="1" stop-color="#0f9af0"/></linearGradient><linearGradient id="b" gradientUnits="userSpaceOnUse" x1="199.9375" x2="394" y1="199.6678" y2="199.6678"><stop offset=".0054" stop-color="#0a77e8"/><stop offset="1" stop-color="#085aae"/></linearGradient><linearGradient id="c" gradientUnits="userSpaceOnUse" x1="232.2813" x2="361.6563" y1="175.1406" y2="175.1406"><stop offset="0" stop-color="#fbf24a"/><stop offset="1" stop-color="#fbd141"/></linearGradient><linearGradient id="d" gradientUnits="userSpaceOnUse" x1="181.0703" x2="394" y1="305.0546" y2="305.0546"><stop offset=".0054" stop-color="#434343"/><stop offset="1" stop-color="#242424"/></linearGradient><linearGradient id="e" gradientUnits="userSpaceOnUse" x1="142.7969" x2="199.9375" y1="305.0546" y2="305.0546"><stop offset=".0054" stop-color="#c0c0c0"/><stop offset="1" stop-color="#828282"/></linearGradient><linearGradient id="f" gradientUnits="userSpaceOnUse" x1="232.2813" x2="361.6563" y1="272.7109" y2="272.7109"><stop offset="0" stop-color="#fdf9a5"/><stop offset="1" stop-color="#fbf24a"/></linearGradient><linearGradient id="g" gradientUnits="userSpaceOnUse" x1="118" x2="183.7656" y1="256.2695" y2="256.2695"><stop offset=".0054" stop-color="#636363"/><stop offset="1" stop-color="#434343"/></linearGradient><path d="m512 256c0 141.386719-114.613281 256-256 256s-256-114.613281-256-256 114.613281-256 256-256 256 114.613281 256 256zm0 0" fill="url(#a)"/><path d="m296.96875 167.054688h-97.03125v65.226562h97.03125l97.03125-16.171875v-49.054687zm0 0" fill="url(#b)"/><path d="m296.96875 118h-64.6875v114.28125h129.375v-114.28125zm0 0" fill="url(#c)"/><path d="m296.96875 216.109375h-97.03125l-18.867188 88.945313 18.867188 88.945312h194.0625v-177.890625zm0 0" fill="url(#d)"/><path d="m142.796875 216.109375h57.140625v177.890625h-57.140625zm0 0" fill="url(#e)"/><path d="m232.28125 313.140625h16.171875v16.171875h-16.171875zm0 0" fill="#18e0ff"/><path d="m264.625 313.140625h16.171875v16.171875h-16.171875zm0 0" fill="#18e0ff"/><path d="m296.96875 313.140625h16.171875v16.171875h-16.171875zm0 0" fill="#0f9af0"/><path d="m232.28125 345.484375h16.171875v16.171875h-16.171875zm0 0" fill="#18e0ff"/><path d="m264.625 345.484375h16.171875v16.171875h-16.171875zm0 0" fill="#18e0ff"/><path d="m296.96875 345.484375h16.171875v16.171875h-16.171875zm0 0" fill="#0f9af0"/><path d="m345.484375 345.484375h16.171875v16.171875h-16.171875zm0 0" fill="#fe6192"/><path d="m296.96875 248.453125h-64.6875v48.515625h129.375v-48.515625zm0 0" fill="url(#f)"/><path d="m118 167.054688h65.765625v178.429687h-65.765625zm0 0" fill="url(#g)"/></svg>